<?xml version="1.0" encoding="UTF-8"?>
<!-- Created with Inkscape (http://www.inkscape.org/) -->
<svg width="2368" height="512" version="1.1" viewBox="0 0 626.53 135.47" xmlns="http://www.w3.org/2000/svg" xmlns:xlink="http://www.w3.org/1999/xlink">
 <defs>
  <linearGradient id="linearGradient10" x1="220.9" x2="571.26" y1="132.96" y2="652.37" gradientTransform="translate(-82.815,-324.93)" gradientUnits="userSpaceOnUse">
   <stop stop-color="#b6273e" offset="0"/>
   <stop stop-color="#c16c29" offset="1"/>
  </linearGradient>
  <filter id="filter11" x="-.05122" y="-.23703" width="1.1024" height="1.4741" color-interpolation-filters="sRGB">
   <feGaussianBlur result="blur" stdDeviation="13.371487403100776"/>
  </filter>
  <clipPath id="clipPath3">
   <use xlink:href="#g2"/>
  </clipPath>
 </defs>
 <g clip-path="url(#clipPath3)">
  <g id="g2">
   <path d="m25.4 0c-14.072 0-25.4 11.329-25.4 25.4v84.67c0 14.072 11.329 25.4 25.4 25.4h575.73c14.072 0 25.4-11.329 25.4-25.4v-84.67c0-14.072-11.329-25.4-25.4-25.4z" fill="url(#linearGradient10)" style="paint-order:stroke fill markers"/>
   <g transform="translate(-89.987 -315.73)" filter="url(#filter11)" stroke-width="3.9688">
    <path d="m693.15 315.81-580.69 0.0861c-4.9745 1.6731-8.0662 0.25033-11.92 4.5981l590.85 3.7695c12.996-0.0573 25.142 13.365 25.142 26.372l-9e-3 -9.5044c0-6.8812-2.3358-20.204-23.369-25.321z" fill="#fff" stop-color="#000000" style="paint-order:stroke fill markers"/>
    <path d="m90.407 430.45c2.2989 12.746 11.826 20.837 26.975 20.757l573.73-5.2e-4c8.3148-0.8672 13.886-2.9486 16.715-6.2441 0 0-574.61-4e-3 -590.39-0.38767-15.782-0.38316-27.033-14.124-27.453-35.041z" stop-color="#000000" style="paint-order:stroke fill markers"/>
   </g>
  </g>
 </g>
 <g transform="translate(-81.757 -318.46)" fill="#fff">
  <path d="m572.39 339.87c-4.107 5.2e-4 -4.1073 6.1617-4.1073 14.377 0 5.3847-1.027 11.296 1.0268 15.404 1.2662 2.5325 3.3893 3.8178 5.16 4.4691 1.6207 0.59614 2.226-0.48332 1.5033-2.0552-0.76628-1.6668-1.5286-3.9669-1.5286-6.5212 0-3.2054 1.0267-9.2426 3.0805-9.2426 1.4695 0 4.1077 1.0274 6.1615 3.081 2.0538 2.0537 3.0805 4.1076 3.0805 7.1884 0 1.7196-0.67731 3.3973-1.4821 4.7838-1.1979 2.0636-0.60123 3.4041 1.5524 2.3989 2.8428-1.3269 6.0913-4.3596 6.0913-11.291 0-10.269-16.429-22.591-20.538-22.592zm78.19 0c-4.1076 0-4.1074 6.1614-4.1074 14.377 0 5.3847-1.027 11.296 1.0268 15.404 1.2663 2.5325 3.3893 3.8178 5.16 4.4691 1.6207 0.59614 2.2254-0.48332 1.5028-2.0552-0.76626-1.6668-1.5286-3.9669-1.5286-6.5212 0-3.2054 1.0272-9.2426 3.081-9.2426 1.4695 0 4.1077 1.0274 6.1615 3.081s3.0805 4.1076 3.0805 7.1884c0 1.7196-0.67783 3.3973-1.4826 4.7838-1.1979 2.0636-0.6007 3.4041 1.5529 2.3989 2.8428-1.3269 6.0912-4.3596 6.0912-11.291 0-10.269-16.431-22.592-20.538-22.592zm-127.87 34.241c-2.2125 0-4.0098 0.76049-5.3926 2.2816s-2.4548 3.5263-3.2154 6.0153c-0.69136 2.489-1.1751 5.1852-1.4516 8.0891-0.27656 2.9039-0.41497 5.7385-0.41497 8.5041 0 2.7655 0.13841 5.6349 0.41497 8.608 0.34575 2.973 0.89886 5.7387 1.6594 8.2969 0.7605 2.5581 1.8321 4.6323 3.2149 6.2225 1.4519 1.5902 3.2498 2.3849 5.3931 2.3849 2.9038 0 4.9085-0.76049 6.0148-2.2816 1.1062-1.5902 1.7288-3.5607 1.8671-5.9114 0.20741-2.3508 0.3111-4.736 0.3111-7.1558 0-3.6644 0.55311-6.6027 1.6594-8.8152 1.1063-2.2816 2.8346-3.4226 5.1853-3.4226 2.6273 0 4.4593 1.141 5.4964 3.4226 1.0371 2.2124 1.556 5.1508 1.556 8.8152 0 2.4199 0.10368 4.8398 0.31111 7.2597 0.20741 2.3507 0.86421 4.3212 1.9705 5.9114 1.1753 1.5211 3.1458 2.2816 5.9114 2.2816l-5.2e-4 5.1e-4c2.5581 0 4.5286-0.761 5.9114-2.2821 1.4519-1.5902 2.4545-3.6644 3.0076-6.2225 0.62223-2.6273 0.9333-5.5309 0.9333-8.7113 0.0692-6.2225-0.69135-11.684-2.2816-16.386-1.5211-4.7707-3.9757-8.5047-7.3636-11.201-3.3877-2.6964-7.743-4.0443-13.067-4.0443-2.3507 0-4.4596 0.41475-6.3264 1.2444-1.7977 0.7605-3.1113 1.59-3.941 2.4888-0.96798-3.5953-3.4226-5.3926-7.3636-5.3926zm85.254 0.72555c-2.6273 0-4.6667 0.69154-6.1186 2.0744-1.3828 1.3137-2.3854 3.042-3.0076 5.1853-0.55308 2.1434-0.89888 4.4938-1.0372 7.0519-0.0692 2.489-0.10336 4.9437-0.10336 7.3636 0 3.5954 0.1379 7.0872 0.41445 10.475 0.27661 3.3878 0.79551 6.3951 1.556 9.0224 0.76051 2.6273 1.8668 4.7362 3.3187 6.3264 1.5211 1.5211 3.4568 2.2816 5.8075 2.2816 2.489 0 4.3905-0.58785 5.7042-1.7632 1.3136-1.2445 2.212-2.8345 2.696-4.7704 0.5531-1.9359 0.86468-3.9411 0.93382-6.0153 0.13828-2.1433 0.20722-4.1138 0.20722-5.9114 0-3.457 1.0368-6.188 3.111-8.193 2.1434-2.0742 4.4943-3.1115 7.0525-3.1115 0.96798 3e-5 1.7974 0.13844 2.4888 0.41497 0.69137 0.27654 1.4176 0.5876 2.1782 0.9333 0.76051 0.27656 1.7284 0.41497 2.9038 0.41497 2.6964 0 4.7706-0.89891 6.2225-2.6965 1.5211-1.7976 2.2816-3.6986 2.2816-5.7037 0-2.3508-0.79523-4.4596-2.3854-6.3264-1.5902-1.8668-3.526-3.3188-5.8075-4.3559-2.2817-1.1062-4.5289-1.6594-6.7414-1.6594-2.6273 0-5.1851 0.3458-7.6741 1.0372-2.4199 0.62223-4.4251 1.659-6.0153 3.111-0.41482-1.7285-1.3827-3.0074-2.9038-3.8371-1.5211-0.89885-3.2152-1.3483-5.082-1.3483zm-27.585 4.9792c-2.7656 0-4.8397 0.79471-6.2225 2.3849-1.3828 1.5211-2.3164 3.941-2.8004 7.2597-0.41484 3.3185-0.6222 7.5706-0.6222 12.756 0.0692 5.1852 0.31124 9.4369 0.72607 12.756 0.48397 3.2496 1.3829 5.6695 2.6965 7.2597 1.3827 1.5902 3.4569 2.3854 6.2225 2.3854 2.7656 0 4.8397-0.79523 6.2225-2.3854 1.3828-1.5902 2.3159-4.0101 2.7999-7.2597 0.48398-3.3185 0.69134-7.5701 0.62221-12.756 0-5.1852-0.2421-9.4374-0.72608-12.756-0.48395-3.3187-1.4171-5.7386-2.7999-7.2597-1.3137-1.5902-3.3531-2.3849-6.1186-2.3849zm78.402 0c-2.7656 0-4.8397 0.79471-6.2225 2.3849-1.3828 1.5211-2.3159 3.941-2.7999 7.2597-0.41484 3.3185-0.62219 7.5706-0.62219 12.756 0.0692 5.1852 0.31072 9.4369 0.72555 12.756 0.48396 3.2496 1.3829 5.6695 2.6965 7.2597 1.3828 1.5902 3.4569 2.3854 6.2225 2.3854 2.7656 0 4.8397-0.79523 6.2225-2.3854 1.3828-1.5902 2.3164-4.0101 2.8004-7.2597 0.48397-3.3185 0.69133-7.5701 0.62219-12.756 0-5.1852-0.24209-9.4374-0.72606-12.756s-1.4171-5.7386-2.7999-7.2597c-1.3137-1.5902-3.3536-2.3849-6.1192-2.3849z" stroke-linecap="square" stroke-width="2.1167" style="paint-order:stroke fill markers"/>
  <path d="m482.17 354.92c-1.2795 0-2.4138 0.37774-3.4025 1.1338-0.98865 0.69793-1.6572 1.6285-2.0061 2.7916l-20.239 69.44c-0.29079 1.0469-0.29079 2.1515 0 3.3146 0.34893 1.1631 0.98877 2.1229 1.9193 2.879 0.93046 0.8142 2.0935 1.2211 3.4893 1.2211 1.2795 0 2.4138-0.37774 3.4025-1.1338 0.98866-0.75606 1.6572-1.6866 2.0061-2.7916l20.239-69.44c0.34894-1.105 0.34894-2.2101 0-3.3151-0.34894-1.1631-0.98878-2.1229-1.9193-2.879-0.87234-0.8142-2.0354-1.2212-3.4893-1.2212zm-73.192 1.7452c-1.9773 0-3.6056 0.63984-4.8851 1.9193s-1.9193 3.0823-1.9193 5.4086c0 2.3263 0.63984 4.1291 1.9193 5.4086 1.2795 1.2795 2.9078 1.9188 4.8851 1.9188 2.0937 0 3.7803-0.63933 5.0598-1.9188 1.2795-1.2795 1.9193-3.0823 1.9193-5.4086 0-2.3263-0.63985-4.1291-1.9193-5.4086-1.2795-1.2795-2.9661-1.9193-5.0598-1.9193zm18.058 0c-1.9773 0-3.6056 0.63984-4.8851 1.9193-1.2795 1.2795-1.9193 3.0823-1.9193 5.4086 0 2.3263 0.63984 4.1291 1.9193 5.4086 1.2795 1.2795 2.9078 1.9188 4.8851 1.9188 2.0937 0 3.7803-0.63933 5.0598-1.9188 1.2795-1.2795 1.9188-3.0823 1.9188-5.4086 0-2.3263-0.63933-4.1291-1.9188-5.4086-1.2795-1.2795-2.9661-1.9193-5.0598-1.9193zm-145.91 0.87232c-1.8029 0-3.3436 0.63932-4.6231 1.9188s-1.9193 2.8207-1.9193 4.6236v51.469c0 1.8029 0.63984 3.3441 1.9193 4.6236 1.2795 1.2795 2.8202 1.9193 4.6231 1.9193 1.8029 0 3.3441-0.63985 4.6236-1.9193 1.2795-1.2795 1.9193-2.8207 1.9193-4.6236v-8.2369l5.0536-4.1166 11.085 16.105c0.5816 0.81418 1.3376 1.4832 2.2681 2.0066 0.98874 0.52342 2.0068 0.78499 3.0536 0.78499 1.8024-2.5e-4 3.3434-0.6401 4.6226-1.9193 1.2795-1.2795 1.9188-2.8207 1.9188-4.6236 0-1.3958-0.40694-2.6463-1.2211-3.7513l-11.715-16.756 10.059-8.193c1.5703-1.2795 2.355-2.9661 2.355-5.0598 0-1.8029-0.63933-3.3149-1.9188-4.5363-1.2795-1.2795-2.8207-1.9193-4.6236-1.9193-1.6866 0-3.1116 0.49448-4.2748 1.4832l-16.662 13.572v-26.308c0-1.8029-0.63984-3.3441-1.9193-4.6236s-2.8207-1.9188-4.6236-1.9188zm58.623 17.272c-3.315 0-6.2813 0.61064-8.8984 1.832-2.5589 1.2213-4.5942 2.908-6.1062 5.0598-1.4539 2.0937-2.1808 4.5072-2.1808 7.2406 0 2.2681 0.37774 4.1872 1.1338 5.7574 0.8142 1.5703 1.9193 2.9083 3.3151 4.0133s2.9949 2.0642 4.7978 2.8784c1.861 0.75607 3.8097 1.4834 5.8453 2.1813 1.7447 0.58156 3.1985 1.1631 4.3616 1.7446 1.1632 0.52342 2.0354 1.0757 2.617 1.6573 0.58157 0.5816 0.87232 1.2214 0.87232 1.9193 0 0.75602-0.31992 1.4246-0.95965 2.0061-0.5816 0.52341-1.6284 0.7855-3.1405 0.7855-1.2795 0-2.617-0.26209-4.0128-0.7855-1.3958-0.5816-2.9371-1.5992-4.6236-3.0531-0.40706-0.40711-1.0756-0.8724-2.0061-1.3958-0.93053-0.58157-2.1227-0.87232-3.5766-0.87232-2.0937 0-3.6641 0.63985-4.7109 1.9193-1.0468 1.2795-1.5705 2.5878-1.5705 3.9254 0 1.6284 0.7852 3.315 2.3555 5.0598 1.6284 1.7447 3.8965 3.1985 6.8044 4.3616 2.9081 1.1631 6.3108 1.7446 10.207 1.7446 3.7216-1.1e-4 6.9492-0.58161 9.6823-1.7446 2.7916-1.2213 4.9435-2.9371 6.4556-5.1471 1.5121-2.2681 2.2681-4.914 2.2681-7.9382 0-1.6865-0.26157-3.1695-0.78499-4.4489-0.46526-1.3377-1.2213-2.5303-2.2681-3.5771-0.98867-1.1049-2.2684-2.0934-3.8386-2.9658-1.5121-0.93047-3.3149-1.7736-5.4086-2.5296-2.6171-0.98869-4.7106-1.7739-6.2809-2.3555s-2.7046-1.1344-3.4025-1.6578c-0.69787-0.58153-1.0465-1.3084-1.0465-2.1808 0-0.63972 0.23239-1.2212 0.69765-1.7446 0.5234-0.52342 1.4832-0.78498 2.879-0.78498 0.98868 0 1.8031 0.14537 2.4428 0.43616 0.69787 0.29076 1.2794 0.63988 1.7446 1.047 0.52342 0.4071 0.9887 0.81404 1.3958 1.2211 0.5816 0.52347 1.3668 1.1341 2.3555 1.832 0.98873 0.63973 2.2387 0.95965 3.7508 0.95965 1.8029 0 3.1118-0.52368 3.926-1.5705 0.87234-1.0469 1.3085-2.2974 1.3085-3.7513 0-1.9773-0.72686-3.7802-2.1808-5.4086-1.3957-1.6866-3.3445-3.0533-5.8453-4.1001-2.4426-1.0468-5.2338-1.57-8.3744-1.57zm-79.908 0.17415c-1.6866 0-3.257 0.52369-4.7109 1.5705-1.3958 0.98873-2.6171 2.2392-3.6639 3.7513-0.19663 0.28916-0.38615 0.57799-0.56898 0.86715-0.15313-1.4307-0.69048-2.6793-1.6118-3.7461-1.0468-1.3376-2.5881-2.0061-4.6236-2.0061-1.9192 0-3.5475 0.63932-4.8851 1.9188-1.2795 1.2795-1.9193 2.8207-1.9193 4.6236v33.586c0 1.8029 0.63984 3.3441 1.9193 4.6236 1.2795 1.2795 2.8207 1.9193 4.6236 1.9193v-5.2e-4c1.8029 0 3.3441-0.63984 4.6236-1.9193 1.2795-1.2795 1.9193-2.8202 1.9193-4.6231v-18.232c0-1.9774 0.26156-3.6348 0.78498-4.9724 0.5234-1.3958 1.3956-2.4426 2.617-3.1404 1.2794-0.75607 2.9952-1.1338 5.1471-1.1338s3.8963-0.63984 5.2339-1.9193 2.0066-2.8207 2.0066-4.6236c0-2.0355-0.63984-3.6346-1.9193-4.7978-1.2795-1.1631-2.9369-1.7452-4.9724-1.7452zm-54.087 5.2e-4c-4.4781 0-8.4324 1.076-11.864 3.2278-3.3731 2.0939-5.9903 4.9144-7.8514 8.4617-1.8611 3.5473-2.7916 7.531-2.7916 11.951 0 4.4781 0.93056 8.5491 2.7916 12.213 1.8611 3.6058 4.4783 6.4559 7.8514 8.5496 3.4312 2.0937 7.3855 3.1405 11.864 3.1405 4.5362 0 8.491-1.0468 11.864-3.1405 3.3731-2.0937 5.9903-4.9438 7.8514-8.5496 1.8611-3.6639 2.7916-7.7349 2.7916-12.213 0-4.4197-0.93057-8.4034-2.7916-11.951-1.8611-3.5476-4.4783-6.368-7.8514-8.4617-3.3731-2.1518-7.3279-3.2278-11.864-3.2278zm-84.532 0.43564c-2.0937 0-3.6933 0.72687-4.7983 2.1808-1.0469 1.3958-1.57 2.9079-1.57 4.5363 0 0.81421 0.11619 1.5416 0.34882 2.1813l12.475 33.237c0.58153 1.5121 1.483 2.6459 2.7043 3.4019 1.2213 0.75607 2.4718 1.1343 3.7513 1.1343 1.3377 0 2.5876-0.37826 3.7508-1.1343 1.2213-0.8142 2.0649-1.948 2.5301-3.4019l6.4556-19.208 6.4551 19.208c0.4652 1.4539 1.3088 2.5877 2.5301 3.4019 1.2213 0.75607 2.4718 1.1343 3.7513 1.1343 1.3377 0 2.5876-0.37826 3.7508-1.1343 1.2213-0.756 2.1227-1.8898 2.7043-3.4019l12.475-33.237c0.23263-0.63973 0.34934-1.3671 0.34934-2.1813 0-1.6284-0.55282-3.1405-1.6578-4.5363-1.0469-1.4539-2.6173-2.1808-4.7109-2.1808-1.4539 0-2.7331 0.40695-3.8381 1.2212-1.105 0.756-1.8902 1.745-2.3555 2.9663l-6.7667 19.102-6.3186-17.88c-0.5234-1.5121-1.3961-2.6464-2.6175-3.4025-1.1632-0.75607-2.4132-1.1338-3.7508-1.1338-1.2795 7e-5 -2.53 0.37781-3.7513 1.1338s-2.0941 1.8903-2.6175 3.4025l-6.3186 17.88-6.7667-19.102c-0.40713-1.2213-1.1923-2.2102-2.3555-2.9663-1.105-0.8142-2.3842-1.2212-3.8381-1.2212zm271.27 5.2e-4c-2.0937 0-3.6933 0.72686-4.7983 2.1808-1.0468 1.3958-1.57 2.9079-1.57 4.5363 0 0.8142 0.1162 1.5411 0.34882 2.1808l12.475 33.237c0.58153 1.5121 1.483 2.6459 2.7043 3.4019 1.2213 0.75606 2.4718 1.1343 3.7513 1.1343 1.3376-1e-5 2.5882-0.37827 3.7513-1.1343 1.2213-0.8142 2.0644-1.948 2.5296-3.4019l6.4556-19.207 6.4556 19.207c0.4652 1.4539 1.3083 2.5877 2.5296 3.4019 1.2213 0.75607 2.4718 1.1343 3.7513 1.1343 1.3377 0 2.5882-0.37826 3.7513-1.1343 1.2213-0.756 2.1227-1.8898 2.7043-3.4019l12.475-33.237c0.23263-0.63973 0.34882-1.3666 0.34882-2.1808 0-1.6284-0.5523-3.1405-1.6573-4.5363-1.0469-1.4539-2.6173-2.1808-4.7109-2.1808-1.4539 0-2.7336 0.40694-3.8386 1.2211-1.105 0.756-1.8902 1.7444-2.3555 2.9658l-6.7667 19.102-6.3186-17.881c-0.5234-1.5121-1.3956-2.6459-2.617-3.4019-1.1632-0.75607-2.4137-1.1343-3.7513-1.1343-1.2795 7e-5 -2.53 0.37833-3.7513 1.1343-1.2213 0.756-2.0935 1.8898-2.617 3.4019l-6.3186 17.881-6.7672-19.102c-0.40714-1.2213-1.1918-2.2097-2.355-2.9658-1.105-0.8142-2.3847-1.2211-3.8386-1.2211zm-186.73 11.515c2.8497 0 5.06 0.98845 6.6302 2.9658 1.5703 1.9773 2.3555 4.8853 2.3555 8.7237 0 4.0129-0.7852 7.0079-2.3555 8.9852-1.5703 1.9773-3.7805 2.9663-6.6302 2.9663-2.8497 0-5.0595-0.98897-6.6297-2.9663-1.5703-1.9773-2.3555-4.9723-2.3555-8.9852 0-3.8384 0.78521-6.7464 2.3555-8.7237 1.5703-1.9773 3.78-2.9658 6.6297-2.9658z" style="font-variation-settings:'wght' 800;paint-order:stroke fill markers"/>
 </g>
</svg>
